<svg width="160" height="160" viewBox="0 0 160 160" fill="none" xmlns="http://www.w3.org/2000/svg">
  <rect width="160" height="160" rx="36" fill="#0F2030"/>
  <circle cx="80" cy="80" r="56" fill="url(#paint0_linear)"/>
  <circle cx="80" cy="80" r="48" fill="#E9FBF5"/>
  <path d="M44 91C53.5 83.8 63.9 80.4 75.2 81.1C88.6 81.9 96.4 91.9 109.1 91.7C115.4 91.6 120.8 89.2 126 85.5V103.8C116.8 110.1 106.7 112.6 95.7 111.2C82.4 109.5 75.8 100.8 63.9 100.6C56.4 100.5 50 103.4 44 107.9V91Z" fill="#12C987"/>
  <path d="M42 83.8C47.4 80 52.8 77.7 58.2 76.8L64.7 61.7C66.4 57.7 70.3 55.1 74.6 55.1H90.8C95.1 55.1 99.1 57.7 100.7 61.7L107 76.8C112.2 77.8 116.9 80.1 121 83.8L118.7 97.5H108.2L104.7 91.9H60L56.7 97.5H44.6L42 83.8Z" fill="#0F2030"/>
  <path d="M66.6 74.8L70.6 64.8C71.2 63.3 72.7 62.3 74.4 62.3H90.9C92.5 62.3 94 63.3 94.6 64.8L98.6 74.8H66.6Z" fill="#FFFFFF"/>
  <path d="M53.8 86.4C53.8 83.8 56 81.7 58.7 81.7H65.6C68.3 81.7 70.5 83.8 70.5 86.4C70.5 89 68.3 91.1 65.6 91.1H58.7C56 91.1 53.8 89 53.8 86.4Z" fill="#FFFFFF"/>
  <path d="M94.8 86.4C94.8 83.8 97 81.7 99.7 81.7H106.6C109.3 81.7 111.5 83.8 111.5 86.4C111.5 89 109.3 91.1 106.6 91.1H99.7C97 91.1 94.8 89 94.8 86.4Z" fill="#FFFFFF"/>
  <path d="M70.5 99.4H93.5" stroke="#FFFFFF" stroke-width="5" stroke-linecap="round"/>
  <path d="M111 36C111 46 103 54 93 54C103 54 111 62 111 72C111 62 119 54 129 54C119 54 111 46 111 36Z" fill="#FFFFFF"/>
  <path d="M50 38C50 44.1 45.1 49 39 49C45.1 49 50 53.9 50 60C50 53.9 54.9 49 61 49C54.9 49 50 44.1 50 38Z" fill="#12C987"/>
  <defs>
    <linearGradient id="paint0_linear" x1="45" y1="32" x2="115" y2="130" gradientUnits="userSpaceOnUse">
      <stop stop-color="#24D5FF"/>
      <stop offset="1" stop-color="#12C987"/>
    </linearGradient>
  </defs>
</svg>
