<svg width="160" height="160" viewBox="0 0 160 160" fill="none" xmlns="http://www.w3.org/2000/svg">
  <rect width="160" height="160" rx="32" fill="#0F2030"/>
  <path d="M30 92C43.4 79.7 56.9 74.5 70.4 76.3C87.2 78.6 95.3 91.4 112.2 91.1C119.7 90.9 126.4 88.2 133 83.7V105.8C120.4 113.6 107.5 116.6 94.2 114.6C78.3 112.2 70.1 100.9 55.3 100.7C46.8 100.6 38.4 104.1 30 111.3V92Z" fill="#12C987"/>
  <path d="M38 81.7C43.1 77.6 49.6 75 57.4 73.9L63.8 59C66.2 53.6 71.6 50.1 77.5 50.1H91.8C97.8 50.1 103.1 53.6 105.5 59L111.9 73.9C119.6 75.2 126.3 77.8 132 81.7L128.6 98.8H116.2L112.5 92.8H58.1L54.4 98.8H41.4L38 81.7Z" fill="#E9FBF5"/>
  <path d="M68.9 71L73.2 61.2C74 59.4 75.8 58.2 77.8 58.2H91.4C93.4 58.2 95.2 59.4 96 61.2L100.3 71H68.9Z" fill="#0F2030"/>
  <path d="M51.8 84.5C51.8 81.6 54.2 79.3 57.1 79.3H64.6C67.6 79.3 70 81.6 70 84.5C70 87.4 67.6 89.7 64.6 89.7H57.1C54.2 89.7 51.8 87.4 51.8 84.5Z" fill="#0F2030"/>
  <path d="M99.2 84.5C99.2 81.6 101.6 79.3 104.6 79.3H112.1C115 79.3 117.4 81.6 117.4 84.5C117.4 87.4 115 89.7 112.1 89.7H104.6C101.6 89.7 99.2 87.4 99.2 84.5Z" fill="#0F2030"/>
  <path d="M72.8 100H96.8" stroke="#0F2030" stroke-width="5" stroke-linecap="round"/>
  <path d="M116.5 30C116.5 39.1 109.1 46.5 100 46.5C109.1 46.5 116.5 53.9 116.5 63C116.5 53.9 123.9 46.5 133 46.5C123.9 46.5 116.5 39.1 116.5 30Z" fill="#24D5FF"/>
  <path d="M47 35C47 40.5 42.5 45 37 45C42.5 45 47 49.5 47 55C47 49.5 51.5 45 57 45C51.5 45 47 40.5 47 35Z" fill="#12C987"/>
</svg>
